HIERARCHY
ROOT Hips
{
    OFFSET 0.000000 0.000000 0.000000
    CHANNELS 6 Xposition Yposition Zposition Zrotation Xrotation Yrotation
    JOINT Spine
    {
        OFFSET -0.000000 7.236184 0.000000
        CHANNELS 3 Zrotation Xrotation Yrotation
        JOINT Spine1
        {
            OFFSET -0.000000 20.420147 0.000000
            CHANNELS 3 Zrotation Xrotation Yrotation
            JOINT Neck
            {
                OFFSET -0.000000 20.336288 1.848754
                CHANNELS 3 Zrotation Xrotation Yrotation
                JOINT Head
                {
                    OFFSET -0.000000 12.354461 -1.764923
                    CHANNELS 3 Zrotation Xrotation Yrotation
                    End Site
                    {
                        OFFSET -0.000000 22.061537 0.000000
                    }
                }
            }
            JOINT LeftShoulder
            {
                OFFSET 3.573296 18.396038 -0.314103
                CHANNELS 3 Zrotation Xrotation Yrotation
                JOINT LeftArm
                {
                    OFFSET 10.880760 0.000000 0.000000
                    CHANNELS 3 Zrotation Xrotation Yrotation
                    JOINT LeftForeArm
                    {
                        OFFSET 27.185530 0.000000 0.000000
                        CHANNELS 3 Zrotation Xrotation Yrotation
                        JOINT LeftHand
                        {
                            OFFSET 27.825975 0.000000 0.000000
                            CHANNELS 3 Zrotation Xrotation Yrotation
                            End Site
                            {
                                OFFSET 13.236923 0.000000 0.000000
                            }
                        }
                    }
                }
            }
            JOINT RightShoulder
            {
                OFFSET -3.474926 18.396038 -0.314103
                CHANNELS 3 Zrotation Xrotation Yrotation
                JOINT RightArm
                {
                    OFFSET -10.880760 0.000000 0.000000
                    CHANNELS 3 Zrotation Xrotation Yrotation
                    JOINT RightForeArm
                    {
                        OFFSET -27.185530 0.000000 0.000000
                        CHANNELS 3 Zrotation Xrotation Yrotation
                        JOINT RightHand
                        {
                            OFFSET -27.825975 0.000000 0.000000
                            CHANNELS 3 Zrotation Xrotation Yrotation
                            End Site
                            {
                                OFFSET -13.236923 0.000000 0.000000
                            }
                        }
                    }
                }
            }
        }
    }
    JOINT LeftUpLeg
    {
        OFFSET 8.824615 0.000000 0.000000
        CHANNELS 3 Zrotation Xrotation Yrotation
        JOINT LeftLeg
        {
            OFFSET -0.000000 -35.111282 0.000000
            CHANNELS 3 Zrotation Xrotation Yrotation
            JOINT LeftFoot
            {
                OFFSET -0.000000 -42.324711 0.000000
                CHANNELS 3 Zrotation Xrotation Yrotation
                JOINT LeftToeBase
                {
                    OFFSET -0.000000 -5.735999 13.236923
                    CHANNELS 3 Zrotation Xrotation Yrotation
                    End Site
                    {
                        OFFSET -0.000000 0.000000 3.529846
                    }
                }
            }
        }
    }
    JOINT RightUpLeg
    {
        OFFSET -8.824615 0.000000 0.000000
        CHANNELS 3 Zrotation Xrotation Yrotation
        JOINT RightLeg
        {
            OFFSET -0.000000 -35.111282 0.000000
            CHANNELS 3 Zrotation Xrotation Yrotation
            JOINT RightFoot
            {
                OFFSET -0.000000 -42.324711 0.000000
                CHANNELS 3 Zrotation Xrotation Yrotation
                JOINT RightToeBase
                {
                    OFFSET -0.000000 -5.735999 13.236923
                    CHANNELS 3 Zrotation Xrotation Yrotation
                    End Site
                    {
                        OFFSET -0.000000 0.000000 3.529846
                    }
                }
            }
        }
    }
}
MOTION
Frames:    7
Frame Time:    0.008333
-7.157753    83.066795    101.072380    -1.873876    -10.812256    -179.090179    -3.613660    -16.334635    -0.237119    0.683998    4.519544    0.254771    2.019331    6.660408    -5.120160    5.579957    -1.984559    -4.619007    -0.612834    17.241089    1.383401    -57.868687    31.114746    -27.551098    0.109560    -6.871419    -13.052025    16.503052    -6.586137    1.894334    6.482702    17.461576    -5.932289    43.063992    40.629356    37.252079    -3.660525    -11.248396    24.744711    -14.844195    -9.992959    -3.638081    3.714912    -13.098545    -2.788093    -5.568431    0.978400    34.519375    2.695112    1.659770    -39.022171    -0.888512    -0.474581    0.985726    -11.073265    -5.596786    -4.475593    2.554801    0.280381    -4.716097    6.684768    -2.534663    -9.234994    -0.096145    0.844177    0.103868    
-7.246803    83.062126    101.078392    -1.880525    -10.896526    -179.086609    -3.636200    -16.324223    -0.165893    0.674568    4.439037    0.329679    1.989120    6.553455    -5.215536    5.663877    -2.019386    -4.702541    -0.623017    17.213535    1.441960    -58.022617    30.728846    -27.108536    -0.014525    -6.918900    -12.847303    16.464140    -6.654387    1.852404    6.447813    17.437325    -5.962799    43.141716    40.555355    37.004841    -3.733905    -11.285029    25.081343    -14.767704    -10.007607    -3.617479    3.576298    -13.449346    -2.847952    -4.472575    3.727731    30.609543    0.532981    0.189042    -35.053574    -0.894241    -0.489018    0.992107    -11.164526    -5.691090    -4.610544    2.580417    0.303878    -4.614315    6.749688    -2.520570    -9.241910    -0.105847    0.851645    0.114348    
-7.335960    83.057281    101.083961    -1.885682    -10.978176    -179.082962    -3.657586    -16.312519    -0.094718    0.665260    4.360401    0.404448    1.959099    6.445900    -5.310770    5.747166    -2.055701    -4.785887    -0.632976    17.185135    1.499309    -58.165119    30.340704    -26.673265    -0.133395    -6.962959    -12.640413    16.425196    -6.717114    1.817891    6.413013    17.413187    -5.993867    43.220833    40.481651    36.754448    -3.807277    -11.322887    25.414717    -14.692414    -10.023000    -3.597348    3.438983    -13.794904    -2.908353    -3.554243    6.024955    27.449207    -1.063251    -1.224657    -31.915318    -0.899768    -0.503763    0.998266    -11.254302    -5.781562    -4.740655    2.606186    0.325825    -4.514624    6.813945    -2.506381    -9.251013    -0.114953    0.858651    0.124185    
-7.424333    83.052216    101.088570    -1.887675    -11.054033    -179.079025    -3.676505    -16.298300    -0.024130    0.656448    4.285635    0.477956    1.931039    6.337893    -5.404548    5.827475    -2.093821    -4.868170    -0.641901    17.156097    1.554061    -58.294762    29.954231    -26.250839    -0.245928    -7.000038    -12.433274    16.387144    -6.770543    1.791432    6.379278    17.389366    -6.025456    43.302425    40.408207    36.500256    -3.878896    -11.360725    25.738556    -14.621105    -10.038288    -3.578888    3.306375    -14.127920    -2.968096    -2.820434    7.911111    24.748735    -2.190512    -2.495675    -29.275263    -0.904979    -0.518999    1.004075    -11.339925    -5.863828    -4.859954    2.632105    0.344420    -4.419347    6.876319    -2.492215    -9.264882    -0.123046    0.864524    0.132927    
-7.513875    83.046700    101.091911    -1.885172    -11.123873    -179.074493    -3.692274    -16.279951    0.047188    0.647239    4.213439    0.551706    1.905944    6.226275    -5.498597    5.906074    -2.134553    -4.951134    -0.648340    17.125755    1.607182    -58.414783    29.561052    -25.832830    -0.354942    -7.029779    -12.221642    16.348289    -6.814824    1.771908    6.346782    17.365982    -6.058316    43.389412    40.333233    36.234447    -3.949981    -11.398958    26.057381    -14.554172    -10.053356    -3.563202    3.177872    -14.452733    -3.028768    -2.233195    9.502118    22.272188    -2.973339    -3.641994    -26.870346    -0.909776    -0.535043    1.009426    -11.421791    -5.936983    -4.967084    2.658787    0.359085    -4.327027    6.938044    -2.477970    -9.286667    -0.130162    0.869166    0.140613    
-7.603328    83.040741    101.093613    -1.877416    -11.185482    -179.069107    -3.704156    -16.256754    0.118026    0.637153    4.144660    0.624205    1.885819    6.112062    -5.591148    5.980965    -2.177185    -5.033433    -0.650690    17.094627    1.657958    -58.523472    29.166939    -25.426575    -0.459483    -7.052503    -12.009155    16.307055    -6.850430    1.758079    6.316957    17.343493    -6.091969    43.481365    40.258438    35.958641    -4.019234    -11.437024    26.363945    -14.494076    -10.067934    -3.551622    3.057029    -14.762419    -3.090065    -1.775097    10.838539    19.976900    -3.480046    -4.655466    -24.640747    -0.914162    -0.551925    1.014324    -11.498192    -5.998210    -5.057419    2.686417    0.369221    -4.238269    6.997978    -2.464386    -9.319698    -0.136244    0.872480    0.147183    
-7.693839    83.034119    101.093376    -1.864330    -11.238684    -179.062546    -3.712372    -16.227699    0.188885    0.625336    4.077916    0.696043    1.871849    5.993953    -5.682919    6.052289    -2.221890    -5.115954    -0.647520    17.062311    1.706766    -58.622597    28.766533    -25.028519    -0.562153    -7.070632    -11.794087    16.259975    -6.880470    1.747452    6.289884    17.322437    -6.126567    43.581131    40.182194    35.668030    -4.086511    -11.475275    26.659092    -14.440434    -10.082502    -3.544001    2.942838    -15.058356    -3.153248    -1.414746    11.987596    17.818052    -3.783870    -5.559446    -22.534437    -0.918257    -0.570032    1.018901    -11.570385    -6.047421    -5.130867    2.715835    0.375646    -4.151544    7.056806    -2.451670    -9.366067    -0.141456    0.873706    0.152813    
